<svg width="1860" height="1861" xmlns="http://www.w3.org/2000/svg" xmlns:xlink="http://www.w3.org/1999/xlink" xml:space="preserve" overflow="hidden"><g transform="matrix(1 0 0 1 0 -618)"><g><path d="M1857 1547.5C1857 2060.31 1441.31 2476 928.5 2476 415.689 2476 0 2060.31 0 1547.5 0 1034.69 415.689 619 928.5 619 1441.31 619 1857 1034.69 1857 1547.5Z" fill="#FF004F" fill-rule="evenodd" fill-opacity="1"/><path d="M895.124 1045.17C915.901 1034.28 940.71 1034.28 961.489 1045.17L965.039 1047.03 968.008 1049.81 1409.87 1456.57C1435.56 1478.3 1445.41 1513.48 1434.77 1545.39 1424.28 1571.6 1398.44 1588.4 1370.21 1587.36L1276.56 1587.36 1276.56 1918.24C1276.56 1969.47 1235 2011 1183.74 2011L1044.51 2011 1044.51 1802.29C1044.51 1738.25 992.569 1686.34 928.492 1686.34 864.414 1686.34 812.469 1738.25 812.469 1802.29L812.469 2011 673.242 2011C621.979 2011 580.423 1969.47 580.423 1918.24L580.423 1587.36 482.105 1587.36C455.372 1586.48 431.774 1569.66 422.237 1544.69 411.526 1512.79 421.55 1477.59 447.461 1456.1L891.597 1047.03Z" fill="#FFFFFF" fill-rule="evenodd" fill-opacity="1"/></g></g></svg>